<svg xmlns="http://www.w3.org/2000/svg" viewBox="0 0 240 160"><path d="M57 62c-8-36 27-48 58-42 33-11 77 4 75 41 22 28 3 69-32 71H82c-39-2-48-43-25-70Z" fill="#F2DDD0"/><g transform="translate(79 33) scale(3.4)" fill="none" stroke="#1F5148" stroke-width="1.25" stroke-linecap="round" stroke-linejoin="round"><path d="M3 3h9l10 10-9 9L3 12Z"/><circle cx="8" cy="8" r="1.5"/></g><g transform="translate(38 0) scale(.16 .15625)"><path d="M160 762V288q0-74 72-74 0-66 76-60 25-70 104-35 38-58 100-23 62-35 100 23 79-35 104 35 76-6 76 60 72 0 72 74v474M220 866h584" fill="none" stroke="#BE7355" stroke-width="10" stroke-linecap="round" stroke-linejoin="round"/><path d="M167 817c-44-4-57-41-45-69 30 9 47 27 45 69Zm0 0c4-45 36-58 62-44-6 28-28 46-62 44Z" fill="#BE7355"/><path d="M857 817c44-4 57-41 45-69-30 9-47 27-45 69Zm0 0c-4-45-36-58-62-44 6 28 28 46 62 44Z" fill="#BE7355"/><circle cx="512" cy="867" r="12" fill="#BE7355"/></g></svg>