<svg xmlns="http://www.w3.org/2000/svg" viewBox="0 0 1024 1024"><rect width="1024" height="1024" fill="#1F5148"/><path d="M145 825V350c0-126 164-159 238-194 51-24 89-52 129-83 40 31 78 59 129 83 74 35 238 68 238 194v475M205 878h614" fill="none" stroke="#BF9061" stroke-width="10" stroke-linecap="round" stroke-linejoin="round"/><path d="M248 882l24-20 24 20-24 20Z" fill="none" stroke="#BF9061" stroke-width="7" stroke-linecap="round" stroke-linejoin="round"/><path d="M368 882l24-20 24 20-24 20Z" fill="none" stroke="#BF9061" stroke-width="7" stroke-linecap="round" stroke-linejoin="round"/><path d="M488 882l24-20 24 20-24 20Z" fill="none" stroke="#BF9061" stroke-width="7" stroke-linecap="round" stroke-linejoin="round"/><path d="M608 882l24-20 24 20-24 20Z" fill="none" stroke="#BF9061" stroke-width="7" stroke-linecap="round" stroke-linejoin="round"/><path d="M728 882l24-20 24 20-24 20Z" fill="none" stroke="#BF9061" stroke-width="7" stroke-linecap="round" stroke-linejoin="round"/><g transform="translate(240 180) scale(22.916666666666668)" fill="#FF7900"><path d="M7.3 13.7C8.5 10.4 10 10 12 10s3.5.4 4.7 3.7c.8 1.2 2.1 2.1 2.1 3.9 0 2-1.6 3.1-3.4 2.5L12 19l-3.4 1.1c-1.8.6-3.4-.5-3.4-2.5 0-1.8 1.3-2.7 2.1-3.9Z"/><ellipse cx="5" cy="9" rx="1.7" ry="2.2"/><ellipse cx="9.4" cy="5.3" rx="1.7" ry="2.3"/><ellipse cx="14.6" cy="5.3" rx="1.7" ry="2.3"/><ellipse cx="19" cy="9" rx="1.7" ry="2.2"/></g><g fill="#1F5148"><g transform="translate(421 455) scale(7.5)"><path d="M12 20S3 14.4 3 8.6C3 3.6 9 2 12 6c3-4 9-2.4 9 2.6C21 14.4 12 20 12 20Z"/></g></g></svg>